<svg width="512" height="512" viewBox="0 0 512 512" fill="none" xmlns="http://www.w3.org/2000/svg">
<path d="M460.8 166.4H317.12L345.87 80.2C351.04 64.65 348.42 47.4001 338.82 34.0801C329.22 20.7801 313.67 12.8 297.24 12.8H256C248.38 12.8 241.2 16.17 236.3 22.02L115.97 166.4H51.2C22.95 166.4 0 189.38 0 217.6V448C0 476.25 22.95 499.2 51.2 499.2H128H391.85C413.08 499.2 432.33 485.87 439.8 465.97L510.38 277.79C511.46 274.91 512 271.87 512 268.79V217.59C512 189.38 489.02 166.4 460.8 166.4ZM51.2 217.6H102.4V448H51.2V217.6ZM460.8 264.17L391.85 448H153.6V201.27L267.98 64H297.3L257.33 183.9C254.68 191.7 256.03 200.28 260.83 206.95C265.65 213.68 273.38 217.6 281.6 217.6H460.8V264.17Z" fill="white"/>
</svg>
