<svg width="512" height="487" viewBox="0 0 512 487" fill="none" xmlns="http://www.w3.org/2000/svg">
<path d="M460.8 153.6H317.12L345.87 67.4C351.04 51.85 348.42 34.6 338.82 21.28C329.22 7.98 313.67 0 297.24 0H256C248.38 0 241.2 3.37 236.3 9.22L115.97 153.6H51.2C22.95 153.6 0 176.58 0 204.8V435.2C0 463.45 22.95 486.4 51.2 486.4H128H391.85C413.08 486.4 432.33 473.07 439.8 453.17L510.38 264.99C511.46 262.11 512 259.07 512 255.99V204.79C512 176.58 489.02 153.6 460.8 153.6ZM102.4 204.8H51.2V435.2L102.4 204.8ZM317.12 204.8H281.6L297.3 51.2L153.6 188.47L391.85 486.4L297.3 51.2L257.33 171.1C254.68 178.9 256.03 187.48 260.83 194.15C265.65 200.88 273.38 204.8 281.6 204.8H460.8H317.12Z" fill="white"/>
</svg>
