<svg width="23" height="10" viewBox="0 0 23 10" fill="none" xmlns="http://www.w3.org/2000/svg">
<path d="M0.519531 0.996094C1.06641 1.01172 1.51953 1.02344 1.87891 1.03125C2.24609 1.03125 2.54297 1.03125 2.76953 1.03125H3.39062H6.88281C6.89844 1.1875 6.91016 1.33984 6.91797 1.48828C6.93359 1.62891 6.94141 1.75391 6.94141 1.86328C6.94141 1.99609 6.9375 2.11719 6.92969 2.22656C6.92188 2.33594 6.91016 2.45312 6.89453 2.57812C6.87891 2.6875 6.86328 2.80469 6.84766 2.92969C6.83203 3.05469 6.80469 3.18359 6.76562 3.31641C6.65625 2.89453 6.50781 2.57422 6.32031 2.35547C6.14062 2.13672 5.95703 1.97656 5.76953 1.875C5.55078 1.75781 5.32031 1.69531 5.07812 1.6875C4.75781 1.70312 4.50781 1.73047 4.32812 1.76953C4.14844 1.80859 4.00781 1.86328 3.90625 1.93359C3.80469 2.00391 3.72656 2.08594 3.67188 2.17969C3.625 2.26562 3.57422 2.36328 3.51953 2.47266C3.47266 2.56641 3.42969 2.71094 3.39062 2.90625C3.35156 3.07031 3.3125 3.29297 3.27344 3.57422C3.24219 3.85547 3.20703 4.21875 3.16797 4.66406C3.37891 4.60156 3.54688 4.54297 3.67188 4.48828C3.80469 4.43359 3.91016 4.38672 3.98828 4.34766C4.07422 4.30078 4.13672 4.25781 4.17578 4.21875C4.20703 4.17188 4.25391 4.08594 4.31641 3.96094C4.36328 3.85156 4.42578 3.70312 4.50391 3.51562C4.58984 3.32812 4.69141 3.07031 4.80859 2.74219C4.82422 3.10156 4.83203 3.40234 4.83203 3.64453C4.83203 3.87891 4.83594 4.07031 4.84375 4.21875C4.84375 4.39062 4.84766 4.52734 4.85547 4.62891V5.07422C4.85547 5.23828 4.85547 5.46094 4.85547 5.74219C4.86328 6.01562 4.875 6.36328 4.89062 6.78516C4.79688 6.49609 4.71094 6.26953 4.63281 6.10547C4.5625 5.93359 4.5 5.80469 4.44531 5.71875C4.38281 5.61719 4.32812 5.54688 4.28125 5.50781C4.22656 5.49219 4.15234 5.47656 4.05859 5.46094C3.97266 5.45312 3.86328 5.44922 3.73047 5.44922C3.60547 5.44922 3.44531 5.46875 3.25 5.50781C3.22656 5.9375 3.22266 6.28516 3.23828 6.55078C3.26172 6.80859 3.29297 7.00781 3.33203 7.14844C3.37109 7.3125 3.41797 7.42969 3.47266 7.5C3.54297 7.57031 3.68359 7.62891 3.89453 7.67578C4.10547 7.71484 4.34375 7.73047 4.60938 7.72266C4.88281 7.70703 5.16016 7.66016 5.44141 7.58203C5.72266 7.50391 5.97266 7.375 6.19141 7.19531C6.35547 7.04688 6.53125 6.85938 6.71875 6.63281C6.875 6.4375 7.04688 6.19141 7.23438 5.89453C7.42969 5.59766 7.62109 5.23828 7.80859 4.81641C7.77734 5.16797 7.75391 5.46094 7.73828 5.69531C7.73047 5.92188 7.71875 6.10547 7.70312 6.24609C7.6875 6.41016 7.67578 6.53516 7.66797 6.62109C7.66797 6.71484 7.65625 6.84766 7.63281 7.01953C7.61719 7.16797 7.58984 7.37109 7.55078 7.62891C7.51953 7.87891 7.47656 8.19922 7.42188 8.58984C7.05469 8.59766 6.70703 8.60547 6.37891 8.61328C6.05078 8.61328 5.76172 8.61719 5.51172 8.625C5.21484 8.63281 4.94141 8.64062 4.69141 8.64844C4.43359 8.64844 4.14844 8.66016 3.83594 8.68359C3.5625 8.69922 3.23828 8.72266 2.86328 8.75391C2.49609 8.78516 2.08984 8.82812 1.64453 8.88281C1.68359 8.35156 1.71094 7.85156 1.72656 7.38281C1.75 6.90625 1.76562 6.48828 1.77344 6.12891C1.78125 5.70703 1.78125 5.31641 1.77344 4.95703C1.8125 4.05859 1.79688 3.33203 1.72656 2.77734C1.65625 2.22266 1.57422 1.86719 1.48047 1.71094C1.43359 1.65625 1.36719 1.58984 1.28125 1.51172C1.21094 1.44922 1.11328 1.375 0.988281 1.28906C0.863281 1.20312 0.707031 1.10547 0.519531 0.996094ZM8.07812 0.632812C8.34375 0.671875 8.57812 0.699219 8.78125 0.714844C8.99219 0.730469 9.16797 0.746094 9.30859 0.761719C9.47266 0.777344 9.61328 0.785156 9.73047 0.785156H10.1875C10.4922 0.785156 10.9961 0.773438 11.6992 0.75C11.5273 0.804687 11.3828 0.882813 11.2656 0.984375C11.1562 1.08594 11.0664 1.19141 10.9961 1.30078C10.9102 1.42578 10.8477 1.55469 10.8086 1.6875C10.7617 1.85156 10.7188 2.07031 10.6797 2.34375C10.6406 2.58594 10.6016 2.90234 10.5625 3.29297C10.5312 3.68359 10.5 4.17188 10.4688 4.75781C10.8047 4.375 11.0977 4.03516 11.3477 3.73828C11.6055 3.44141 11.8281 3.17969 12.0156 2.95312C12.2031 2.72656 12.3594 2.53125 12.4844 2.36719C12.6172 2.20312 12.7266 2.0625 12.8125 1.94531C13.0156 1.67969 13.1328 1.5 13.1641 1.40625C13.1719 1.35156 13.168 1.28516 13.1523 1.20703C13.1367 1.14453 13.1133 1.07031 13.082 0.984375C13.0508 0.890625 13.0039 0.789063 12.9414 0.679688C13.2539 0.695313 13.5195 0.707031 13.7383 0.714844C13.9648 0.722656 14.1523 0.730469 14.3008 0.738281C14.4727 0.746094 14.6133 0.75 14.7227 0.75H15.2148C15.3945 0.75 15.6289 0.75 15.918 0.75C16.207 0.742188 16.5703 0.734375 17.0078 0.726562C16.7188 0.796875 16.4453 0.890625 16.1875 1.00781C15.9297 1.125 15.6992 1.23828 15.4961 1.34766C15.2617 1.48047 15.043 1.61719 14.8398 1.75781C14.6367 1.91406 14.4102 2.09766 14.1602 2.30859C13.9492 2.48828 13.7031 2.71094 13.4219 2.97656C13.1406 3.23438 12.8359 3.53516 12.5078 3.87891C12.8594 4.56641 13.1641 5.13281 13.4219 5.57812C13.6875 6.01562 13.9102 6.36719 14.0898 6.63281C14.293 6.94531 14.4648 7.18359 14.6055 7.34766C14.7461 7.49609 14.9102 7.64844 15.0977 7.80469C15.2539 7.9375 15.4492 8.08594 15.6836 8.25C15.918 8.40625 16.1875 8.55859 16.4922 8.70703L13.1523 8.87109C13.1992 8.80859 13.2266 8.73438 13.2344 8.64844C13.25 8.55469 13.2578 8.46875 13.2578 8.39062C13.2578 8.30469 13.25 8.21094 13.2344 8.10938C13.2031 7.98438 13.1211 7.78125 12.9883 7.5C12.8789 7.25781 12.7109 6.91797 12.4844 6.48047C12.2578 6.03516 11.9453 5.44922 11.5469 4.72266L10.5508 5.76562C10.5117 6.01562 10.4922 6.24219 10.4922 6.44531C10.4922 6.64844 10.5 6.81641 10.5156 6.94922C10.5391 7.11328 10.5703 7.25391 10.6094 7.37109C10.6562 7.48828 10.7227 7.62109 10.8086 7.76953C10.8789 7.90234 10.9727 8.05859 11.0898 8.23828C11.207 8.41797 11.3555 8.61719 11.5352 8.83594C11.3555 8.78906 11.1758 8.75781 10.9961 8.74219C10.8164 8.71875 10.6523 8.70312 10.5039 8.69531C10.332 8.6875 10.168 8.69141 10.0117 8.70703C9.84766 8.72266 9.65625 8.74609 9.4375 8.77734C9.25 8.80859 9.01953 8.84766 8.74609 8.89453C8.47266 8.94141 8.16016 9 7.80859 9.07031C7.98047 8.96875 8.11719 8.85938 8.21875 8.74219C8.32031 8.625 8.40234 8.51172 8.46484 8.40234C8.53516 8.27734 8.58203 8.15625 8.60547 8.03906C8.62109 7.9375 8.63281 7.71875 8.64062 7.38281C8.65625 7.04688 8.66406 6.65625 8.66406 6.21094C8.67188 5.75781 8.67188 5.28125 8.66406 4.78125C8.65625 4.28125 8.64844 3.8125 8.64062 3.375C8.63281 2.9375 8.62109 2.56641 8.60547 2.26172C8.59766 1.94922 8.58984 1.75781 8.58203 1.6875C8.55859 1.57812 8.52734 1.46094 8.48828 1.33594C8.44922 1.22656 8.39453 1.11328 8.32422 0.996094C8.26172 0.871094 8.17969 0.75 8.07812 0.632812ZM15.332 0.621094C15.582 0.683594 15.8203 0.730469 16.0469 0.761719C16.2734 0.792969 16.4727 0.816406 16.6445 0.832031C16.8477 0.855469 17.0352 0.863281 17.207 0.855469C17.4258 0.855469 17.6992 0.835938 18.0273 0.796875C18.3633 0.757812 18.707 0.722656 19.0586 0.691406C19.4102 0.652344 19.7461 0.628906 20.0664 0.621094C20.3945 0.605469 20.6602 0.625 20.8633 0.679688C21.0664 0.726562 21.2734 0.800781 21.4844 0.902344C21.7031 0.996094 21.9023 1.11719 22.082 1.26562C22.2617 1.40625 22.4102 1.57422 22.5273 1.76953C22.6445 1.95703 22.7109 2.17188 22.7266 2.41406C22.7188 2.71875 22.6484 3.00391 22.5156 3.26953C22.4062 3.49609 22.2227 3.73047 21.9648 3.97266C21.707 4.20703 21.3359 4.38672 20.8516 4.51172C21.0938 4.54297 21.3008 4.59766 21.4727 4.67578C21.6523 4.74609 21.8047 4.83203 21.9297 4.93359C22.0625 5.02734 22.168 5.13281 22.2461 5.25C22.332 5.36719 22.3984 5.48438 22.4453 5.60156C22.5625 5.875 22.6172 6.17969 22.6094 6.51562C22.5625 6.95312 22.4727 7.30078 22.3398 7.55859C22.2148 7.81641 22.0703 8.01562 21.9062 8.15625C21.7422 8.29688 21.5742 8.39453 21.4023 8.44922C21.2305 8.50391 21.0742 8.54688 20.9336 8.57812C20.793 8.60938 20.6211 8.625 20.418 8.625C20.2148 8.625 19.9961 8.62109 19.7617 8.61328C19.5352 8.59766 19.3008 8.58594 19.0586 8.57812C18.8164 8.5625 18.5859 8.5625 18.3672 8.57812C18.1875 8.59375 17.9688 8.60938 17.7109 8.625C17.4922 8.64062 17.2188 8.66016 16.8906 8.68359C16.5625 8.69922 16.1797 8.71875 15.7422 8.74219C15.8281 8.67969 15.8984 8.60938 15.9531 8.53125C16.0156 8.44531 16.0664 8.37109 16.1055 8.30859C16.1445 8.23047 16.1797 8.15625 16.2109 8.08594C16.2344 8.02344 16.2539 7.85156 16.2695 7.57031C16.2852 7.28906 16.2969 6.95312 16.3047 6.5625C16.3125 6.16406 16.3164 5.73828 16.3164 5.28516C16.3242 4.82422 16.3203 4.38281 16.3047 3.96094C16.2969 3.53125 16.2812 3.15234 16.2578 2.82422C16.2422 2.48828 16.2188 2.24609 16.1875 2.09766C16.1406 1.93359 16.0781 1.76562 16 1.59375C15.9375 1.44531 15.8477 1.28516 15.7305 1.11328C15.6211 0.941406 15.4883 0.777344 15.332 0.621094ZM17.8047 1.81641C17.8047 1.84766 17.8086 1.95312 17.8164 2.13281C17.8242 2.28906 17.832 2.53125 17.8398 2.85938C17.8555 3.17969 17.875 3.63672 17.8984 4.23047C18.0938 4.31641 18.2852 4.36328 18.4727 4.37109C18.6602 4.37109 18.8281 4.36328 18.9766 4.34766C19.1484 4.32422 19.3125 4.28516 19.4688 4.23047C19.6797 4.14453 19.8438 4.00391 19.9609 3.80859C20.0859 3.61328 20.168 3.41016 20.207 3.19922C20.2539 2.98047 20.2656 2.77734 20.2422 2.58984C20.2188 2.39453 20.168 2.25391 20.0898 2.16797C19.9414 2.03516 19.7578 1.92578 19.5391 1.83984C19.3516 1.76953 19.1133 1.72266 18.8242 1.69922C18.543 1.66797 18.2031 1.70703 17.8047 1.81641ZM17.7461 7.37109C18.0352 7.51953 18.2891 7.61719 18.5078 7.66406C18.7266 7.71094 18.9102 7.73438 19.0586 7.73438C19.2305 7.73438 19.3789 7.71094 19.5039 7.66406C19.6523 7.59375 19.7969 7.5 19.9375 7.38281C20.0859 7.25781 20.1953 7.11328 20.2656 6.94922C20.3438 6.77734 20.375 6.58984 20.3594 6.38672C20.3438 6.17578 20.2539 5.94531 20.0898 5.69531C19.9414 5.51562 19.7617 5.375 19.5508 5.27344C19.3633 5.1875 19.125 5.13281 18.8359 5.10938C18.5547 5.08594 18.207 5.15234 17.793 5.30859L17.7461 7.37109Z" fill="white"/>
</svg>
